<?xml version="1.0" standalone="no"?>
<!DOCTYPE svg PUBLIC "-//W3C//DTD SVG 20010904//EN"
 "http://www.w3.org/TR/2001/REC-SVG-20010904/DTD/svg10.dtd">
<svg version="1.0" xmlns="http://www.w3.org/2000/svg"
 width="240.000000pt" height="240.000000pt" viewBox="0 0 240.000000 240.000000"
 preserveAspectRatio="xMidYMid meet">

<g transform="translate(0.000000,240.000000) scale(0.100000,-0.100000)"
fill="#000000" stroke="none">
<path d="M665 2236 c-110 -28 -178 -83 -155 -125 14 -28 21 -27 93 13 107 59
165 59 263 0 68 -41 81 -42 96 -8 12 25 10 29 -24 58 -68 59 -184 85 -273 62z"/>
<path d="M1520 1925 c-122 -35 -183 -82 -160 -124 15 -28 23 -27 109 16 68 35
81 38 157 38 75 0 89 -3 162 -39 68 -33 83 -37 96 -26 89 73 -201 180 -364
135z"/>
<path d="M668 1810 c-82 -24 -141 -92 -159 -181 -19 -92 16 -175 99 -233 34
-24 56 -31 106 -34 83 -5 129 11 182 64 51 50 79 130 68 191 -25 143 -163 233
-296 193z"/>
<path d="M1506 1806 c-129 -48 -186 -211 -116 -333 78 -137 269 -154 372 -34
93 109 67 269 -56 345 -57 35 -139 44 -200 22z"/>
<path d="M1094 1160 c-55 -11 -132 -51 -172 -88 -82 -76 7 -186 98 -122 49 35
113 60 156 60 39 0 144 -43 144 -60 0 -4 19 -28 43 -54 31 -33 51 -46 71 -46
34 0 76 41 76 75 0 69 -100 178 -195 214 -64 24 -163 33 -221 21z"/>
</g>
</svg>
